<?xml version="1.0" encoding="iso-8859-1"?>
<!-- Generator: Adobe Illustrator 17.1.0, SVG Export Plug-In . SVG Version: 6.00 Build 0)  -->
<!DOCTYPE svg PUBLIC "-//W3C//DTD SVG 1.1//EN" "http://www.w3.org/Graphics/SVG/1.1/DTD/svg11.dtd">
<svg version="1.1" id="Capa_1" xmlns="http://www.w3.org/2000/svg" xmlns:xlink="http://www.w3.org/1999/xlink" x="0px" y="0px"
	 viewBox="0 0 373 373" style="enable-background:new 0 0 373 373;" xml:space="preserve">
<path d="M373,228.379c0-8.284-6.716-15-15-15h-12v-59.057c0-10.623-8.358-18.943-19.028-18.943h-11.637
	c-0.105,0-0.19-0.005-0.257-0.011c-0.063-0.222-0.105-0.542-0.099-0.716L315,100.077c0-7.425-6.396-13.698-13.965-13.698h-38.153
	c-7.524,0-13.882,6.273-13.882,13.698v33.529l0.029,0.543c0.023,0.213-0.013,0.827-0.115,1.23h-31.631
	c-5.032,0-9.283-4.389-9.283-9.583V60.4c0-10.488-8.633-19.021-19.243-19.021H46.744C35.857,41.379,27,49.912,27,60.4v152.979H15
	c-8.284,0-15,6.716-15,15s6.716,15,15,15h4.985c-0.461,3.418-0.721,6.9-0.721,10.442c0,42.899,34.9,77.8,77.8,77.8
	c27.136,0,51.059-13.975,64.985-35.097c9.314,17.864,28,30.097,49.502,30.097c18.682,0,35.238-9.239,45.371-23.377
	c10.133,14.138,26.688,23.377,45.371,23.377c30.769,0,55.801-25.032,55.801-55.801c0-9.971-2.642-19.332-7.243-27.441H358
	C366.284,243.379,373,236.663,373,228.379z M78,152.99V89.768c0-2.972,2.417-5.389,5.389-5.389h65.223
	c2.972,0,5.389,2.417,5.389,5.389v63.222c0,2.971-2.417,5.389-5.389,5.389H83.389C80.417,158.379,78,155.961,78,152.99z
	 M97.063,301.621c-26.356,0-47.8-21.443-47.8-47.8s21.443-47.8,47.8-47.8s47.799,21.443,47.799,47.8S123.42,301.621,97.063,301.621z
	 M211.551,296.621c-14.226,0-25.8-11.574-25.8-25.801s11.574-25.8,25.8-25.8c14.227,0,25.801,11.574,25.801,25.8
	S225.777,296.621,211.551,296.621z M302.292,296.621c-14.227,0-25.801-11.574-25.801-25.801s11.574-25.8,25.801-25.8
	s25.801,11.574,25.801,25.8S316.519,296.621,302.292,296.621z"/>
<g>
</g>
<g>
</g>
<g>
</g>
<g>
</g>
<g>
</g>
<g>
</g>
<g>
</g>
<g>
</g>
<g>
</g>
<g>
</g>
<g>
</g>
<g>
</g>
<g>
</g>
<g>
</g>
<g>
</g>
</svg>
