<?xml version="1.0" encoding="iso-8859-1"?>
<!-- Generator: Adobe Illustrator 19.0.0, SVG Export Plug-In . SVG Version: 6.00 Build 0)  -->
<svg version="1.1" id="Layer_1" xmlns="http://www.w3.org/2000/svg" xmlns:xlink="http://www.w3.org/1999/xlink" x="0px" y="0px"
	 viewBox="0 0 512 512" style="enable-background:new 0 0 512 512;" xml:space="preserve">
<g>
	<g>
		<path d="M448,373.333H131.84L167.403,160h67.264c11.797,0,21.333-9.557,21.333-21.333s-9.536-21.333-21.333-21.333h-85.333H128
			c-47.061,0-85.333-38.272-85.333-85.333c0-11.776-9.536-21.333-21.333-21.333C9.536,10.667,0,20.224,0,32
			c0,46.891,25.429,87.851,63.125,110.144l-41.237,247.36C8.576,401.259,0,418.219,0,437.333c0,35.285,28.715,64,64,64h384
			c35.285,0,64-28.715,64-64S483.285,373.333,448,373.333z"/>
	</g>
</g>
<g>
</g>
<g>
</g>
<g>
</g>
<g>
</g>
<g>
</g>
<g>
</g>
<g>
</g>
<g>
</g>
<g>
</g>
<g>
</g>
<g>
</g>
<g>
</g>
<g>
</g>
<g>
</g>
<g>
</g>
</svg>
